<svg version="1.1" xmlns="http://www.w3.org/2000/svg" viewBox="0 0 96 96">
<path d="M0 0 C2 2 2 2 2.265625 3.875 C2.26046875 4.57625 2.2553125 5.2775 2.25 6 C2.25773437 7.051875 2.25773437 7.051875 2.265625 8.125 C2 10 2 10 0 12 C-1.30928442 12.30577768 -2.6222929 12.59579402 -3.9375 12.875 C-6.16690818 13.53160095 -6.16690818 13.53160095 -8 15 C-9.14475369 17.98956829 -9.70516275 20.90506178 -10.3046875 24.046875 C-11.54612298 29.3194886 -14.18632362 31.84584231 -18.75 34.75 C-22.17779005 36.06838079 -25.42412512 36.74132464 -29.046875 37.27734375 C-31.1438415 37.8379151 -31.1438415 37.8379151 -32.21484375 39.79296875 C-33.00100649 42.00282918 -33.44316325 44.06157203 -33.8125 46.375 C-34.84112944 51.22311396 -36.41091676 53.57405691 -40 57 C-43.57300429 59.27373 -46.51053969 60.07190861 -50.625 60.625 C-53.65838064 61.20205726 -54.66076118 61.50411811 -56.4296875 64.08984375 C-57.41552225 66.36733791 -58.22550924 68.64425726 -59 71 C-60.89488952 72.89488952 -63.57139146 72.18019112 -66.08984375 72.23046875 C-68 72 -68 72 -70 70 C-70.75777697 65.18018602 -70.64350098 60.47557268 -68.3125 56.125 C-63.5308764 49.66334649 -59.37638815 48.35537731 -51.64453125 46.90625 C-48.91866866 46.25667128 -48.91866866 46.25667128 -47.6875 44.1796875 C-46.99695667 41.99035127 -46.54924714 39.89088865 -46.1875 37.625 C-45.15887056 32.77688604 -43.58908324 30.42594309 -40 27 C-35.80605262 24.3311244 -31.79669038 23.43930623 -26.953125 22.72265625 C-24.8561585 22.1620849 -24.8561585 22.1620849 -23.78515625 20.20703125 C-22.99899351 17.99717082 -22.55683675 15.93842797 -22.1875 13.625 C-20.92666273 7.68244916 -18.34009274 4.63262284 -13.3125 1.125 C-8.89393893 -0.37564338 -4.6300423 -0.64121089 0 0 Z " fill="#e7de44" transform="translate(82,12)"/>
</svg>
